<svg xmlns="http://www.w3.org/2000/svg" xmlns:xlink="http://www.w3.org/1999/xlink" xmlns:svgjs="http://svgjs.com/svgjs" width="25" height="25" viewBox="0 0 18.999 19"><svg xmlns="http://www.w3.org/2000/svg" width="19" height="19" viewBox="0.169 0.169 17.962 17.962"><path paint-order="stroke fill markers" fill-rule="evenodd" d="M18.022 16.964l-5.218-5.218a7.073 7.073 0 0 0 1.585-4.467c0-3.92-3.19-7.11-7.11-7.11A7.118 7.118 0 0 0 .17 7.28c0 3.921 3.19 7.11 7.11 7.11a7.072 7.072 0 0 0 4.466-1.585l5.218 5.218a.374.374 0 0 0 .53 0l.529-.53a.375.375 0 0 0 0-.528zM7.279 12.892A5.619 5.619 0 0 1 1.666 7.28 5.619 5.619 0 0 1 7.28 1.666a5.62 5.62 0 0 1 5.614 5.613 5.62 5.62 0 0 1-5.614 5.613z"></path></svg></svg>